<mxfile host="app.diagrams.net" agent="Mozilla/5.0 (Windows NT 10.0; Win64; x64) AppleWebKit/537.36 (KHTML, like Gecko) Chrome/135.0.0.0 Safari/537.36" version="26.2.14">
  <diagram name="Page-1" id="2YBvvXClWsGukQMizWep">
    <mxGraphModel dx="2887" dy="1061" grid="1" gridSize="10" guides="1" tooltips="1" connect="1" arrows="1" fold="1" page="1" pageScale="1" pageWidth="850" pageHeight="1100" math="0" shadow="0">
      <root>
        <mxCell id="0" />
        <mxCell id="1" parent="0" />
        <mxCell id="NyXgYyN8ezu5VPn1i4Vc-31" value="" style="rounded=0;whiteSpace=wrap;html=1;" vertex="1" parent="1">
          <mxGeometry x="-90" y="252.5" width="890" height="467.5" as="geometry" />
        </mxCell>
        <mxCell id="aM9ryv3xv72pqoxQDRHE-1" value="Requestservice" style="shape=umlLifeline;perimeter=lifelinePerimeter;whiteSpace=wrap;html=1;container=0;dropTarget=0;collapsible=0;recursiveResize=0;outlineConnect=0;portConstraint=eastwest;newEdgeStyle={&quot;edgeStyle&quot;:&quot;elbowEdgeStyle&quot;,&quot;elbow&quot;:&quot;vertical&quot;,&quot;curved&quot;:0,&quot;rounded&quot;:0};" parent="1" vertex="1">
          <mxGeometry x="180" y="60" width="100" height="660" as="geometry" />
        </mxCell>
        <mxCell id="aM9ryv3xv72pqoxQDRHE-2" value="" style="html=1;points=[];perimeter=orthogonalPerimeter;outlineConnect=0;targetShapes=umlLifeline;portConstraint=eastwest;newEdgeStyle={&quot;edgeStyle&quot;:&quot;elbowEdgeStyle&quot;,&quot;elbow&quot;:&quot;vertical&quot;,&quot;curved&quot;:0,&quot;rounded&quot;:0};" parent="aM9ryv3xv72pqoxQDRHE-1" vertex="1">
          <mxGeometry x="45" y="70" width="10" height="490" as="geometry" />
        </mxCell>
        <mxCell id="aM9ryv3xv72pqoxQDRHE-3" value="creates advertisment request" style="html=1;verticalAlign=bottom;startArrow=oval;endArrow=block;startSize=8;edgeStyle=elbowEdgeStyle;elbow=vertical;curved=0;rounded=0;" parent="aM9ryv3xv72pqoxQDRHE-1" target="aM9ryv3xv72pqoxQDRHE-2" edge="1">
          <mxGeometry relative="1" as="geometry">
            <mxPoint x="-140" y="70" as="sourcePoint" />
            <Array as="points">
              <mxPoint x="-90" y="70" />
            </Array>
          </mxGeometry>
        </mxCell>
        <mxCell id="aM9ryv3xv72pqoxQDRHE-4" value="" style="html=1;points=[];perimeter=orthogonalPerimeter;outlineConnect=0;targetShapes=umlLifeline;portConstraint=eastwest;newEdgeStyle={&quot;edgeStyle&quot;:&quot;elbowEdgeStyle&quot;,&quot;elbow&quot;:&quot;vertical&quot;,&quot;curved&quot;:0,&quot;rounded&quot;:0};" parent="aM9ryv3xv72pqoxQDRHE-1" vertex="1">
          <mxGeometry x="50" y="90" width="10" height="30" as="geometry" />
        </mxCell>
        <mxCell id="NyXgYyN8ezu5VPn1i4Vc-2" value="" style="endArrow=classic;html=1;rounded=0;entryX=0.671;entryY=0.248;entryDx=0;entryDy=0;entryPerimeter=0;" edge="1" parent="aM9ryv3xv72pqoxQDRHE-1" source="aM9ryv3xv72pqoxQDRHE-2">
          <mxGeometry width="50" height="50" relative="1" as="geometry">
            <mxPoint x="55" y="57.6" as="sourcePoint" />
            <mxPoint x="56.710000000000036" y="89.99999999999997" as="targetPoint" />
            <Array as="points">
              <mxPoint x="120" y="71" />
              <mxPoint x="120" y="90" />
            </Array>
          </mxGeometry>
        </mxCell>
        <mxCell id="NyXgYyN8ezu5VPn1i4Vc-4" value="" style="endArrow=classic;html=1;rounded=0;" edge="1" parent="aM9ryv3xv72pqoxQDRHE-1" source="aM9ryv3xv72pqoxQDRHE-4" target="aM9ryv3xv72pqoxQDRHE-2">
          <mxGeometry width="50" height="50" relative="1" as="geometry">
            <mxPoint x="60" y="117.5" as="sourcePoint" />
            <mxPoint x="62" y="142.5" as="targetPoint" />
            <Array as="points">
              <mxPoint x="125" y="117.5" />
              <mxPoint x="125" y="130" />
              <mxPoint x="125" y="142.5" />
            </Array>
          </mxGeometry>
        </mxCell>
        <mxCell id="aM9ryv3xv72pqoxQDRHE-5" value="Adminservice" style="shape=umlLifeline;perimeter=lifelinePerimeter;whiteSpace=wrap;html=1;container=0;dropTarget=0;collapsible=0;recursiveResize=0;outlineConnect=0;portConstraint=eastwest;newEdgeStyle={&quot;edgeStyle&quot;:&quot;elbowEdgeStyle&quot;,&quot;elbow&quot;:&quot;vertical&quot;,&quot;curved&quot;:0,&quot;rounded&quot;:0};" parent="1" vertex="1">
          <mxGeometry x="350" y="60" width="100" height="660" as="geometry" />
        </mxCell>
        <mxCell id="aM9ryv3xv72pqoxQDRHE-6" value="" style="html=1;points=[];perimeter=orthogonalPerimeter;outlineConnect=0;targetShapes=umlLifeline;portConstraint=eastwest;newEdgeStyle={&quot;edgeStyle&quot;:&quot;elbowEdgeStyle&quot;,&quot;elbow&quot;:&quot;vertical&quot;,&quot;curved&quot;:0,&quot;rounded&quot;:0};" parent="aM9ryv3xv72pqoxQDRHE-5" vertex="1">
          <mxGeometry x="45" y="160" width="10" height="400" as="geometry" />
        </mxCell>
        <mxCell id="NyXgYyN8ezu5VPn1i4Vc-1" value="Clubmember" style="shape=umlActor;verticalLabelPosition=bottom;verticalAlign=top;html=1;outlineConnect=0;" vertex="1" parent="1">
          <mxGeometry x="30" y="30" width="30" height="60" as="geometry" />
        </mxCell>
        <mxCell id="NyXgYyN8ezu5VPn1i4Vc-3" value="&lt;span style=&quot;color: rgb(0, 0, 0); font-family: Helvetica; font-size: 11px; font-style: normal; font-variant-ligatures: normal; font-variant-caps: normal; font-weight: 400; letter-spacing: normal; orphans: 2; text-align: center; text-indent: 0px; text-transform: none; widows: 2; word-spacing: 0px; -webkit-text-stroke-width: 0px; white-space: nowrap; background-color: rgb(255, 255, 255); text-decoration-thickness: initial; text-decoration-style: initial; text-decoration-color: initial; float: none; display: inline !important;&quot;&gt;validates data&lt;/span&gt;" style="text;whiteSpace=wrap;html=1;" vertex="1" parent="1">
          <mxGeometry x="240" y="110" width="70" height="20" as="geometry" />
        </mxCell>
        <mxCell id="NyXgYyN8ezu5VPn1i4Vc-6" value="" style="endArrow=classic;html=1;rounded=0;" edge="1" parent="1" source="aM9ryv3xv72pqoxQDRHE-2" target="aM9ryv3xv72pqoxQDRHE-6">
          <mxGeometry width="50" height="50" relative="1" as="geometry">
            <mxPoint x="230" y="230" as="sourcePoint" />
            <mxPoint x="385" y="230" as="targetPoint" />
            <Array as="points">
              <mxPoint x="300" y="220" />
            </Array>
          </mxGeometry>
        </mxCell>
        <mxCell id="NyXgYyN8ezu5VPn1i4Vc-7" value="&lt;span style=&quot;color: rgb(0, 0, 0); font-family: Helvetica; font-size: 11px; font-style: normal; font-variant-ligatures: normal; font-variant-caps: normal; font-weight: 400; letter-spacing: normal; orphans: 2; text-align: center; text-indent: 0px; text-transform: none; widows: 2; word-spacing: 0px; -webkit-text-stroke-width: 0px; white-space: nowrap; background-color: rgb(255, 255, 255); text-decoration-thickness: initial; text-decoration-style: initial; text-decoration-color: initial; float: none; display: inline !important;&quot;&gt;creates request&lt;/span&gt;" style="text;whiteSpace=wrap;html=1;" vertex="1" parent="1">
          <mxGeometry x="280" y="199" width="70" height="20" as="geometry" />
        </mxCell>
        <mxCell id="NyXgYyN8ezu5VPn1i4Vc-8" value="Admin" style="shape=umlActor;verticalLabelPosition=bottom;verticalAlign=top;html=1;outlineConnect=0;" vertex="1" parent="1">
          <mxGeometry x="550" y="40" width="30" height="60" as="geometry" />
        </mxCell>
        <mxCell id="NyXgYyN8ezu5VPn1i4Vc-11" value="" style="endArrow=none;dashed=1;html=1;rounded=0;" edge="1" parent="1">
          <mxGeometry width="50" height="50" relative="1" as="geometry">
            <mxPoint x="564.7100000000003" y="240" as="sourcePoint" />
            <mxPoint x="564.71" y="130" as="targetPoint" />
          </mxGeometry>
        </mxCell>
        <mxCell id="NyXgYyN8ezu5VPn1i4Vc-12" value="" style="endArrow=classic;html=1;rounded=0;" edge="1" parent="1" source="NyXgYyN8ezu5VPn1i4Vc-14">
          <mxGeometry width="50" height="50" relative="1" as="geometry">
            <mxPoint x="530" y="279.43" as="sourcePoint" />
            <mxPoint x="405" y="279.43" as="targetPoint" />
          </mxGeometry>
        </mxCell>
        <mxCell id="NyXgYyN8ezu5VPn1i4Vc-13" value="&lt;span style=&quot;color: rgb(0, 0, 0); font-family: Helvetica; font-size: 11px; font-style: normal; font-variant-ligatures: normal; font-variant-caps: normal; font-weight: 400; letter-spacing: normal; orphans: 2; text-align: center; text-indent: 0px; text-transform: none; widows: 2; word-spacing: 0px; -webkit-text-stroke-width: 0px; white-space: nowrap; background-color: rgb(255, 255, 255); text-decoration-thickness: initial; text-decoration-style: initial; text-decoration-color: initial; float: none; display: inline !important;&quot;&gt;accepts request&lt;/span&gt;" style="text;whiteSpace=wrap;html=1;" vertex="1" parent="1">
          <mxGeometry x="447.5" y="258" width="70" height="20" as="geometry" />
        </mxCell>
        <mxCell id="NyXgYyN8ezu5VPn1i4Vc-15" value="" style="endArrow=none;dashed=1;html=1;rounded=0;" edge="1" parent="1" source="NyXgYyN8ezu5VPn1i4Vc-25" target="NyXgYyN8ezu5VPn1i4Vc-14">
          <mxGeometry width="50" height="50" relative="1" as="geometry">
            <mxPoint x="565" y="420" as="sourcePoint" />
            <mxPoint x="534.71" y="130" as="targetPoint" />
          </mxGeometry>
        </mxCell>
        <mxCell id="NyXgYyN8ezu5VPn1i4Vc-14" value="" style="html=1;points=[];perimeter=orthogonalPerimeter;outlineConnect=0;targetShapes=umlLifeline;portConstraint=eastwest;newEdgeStyle={&quot;edgeStyle&quot;:&quot;elbowEdgeStyle&quot;,&quot;elbow&quot;:&quot;vertical&quot;,&quot;curved&quot;:0,&quot;rounded&quot;:0};" vertex="1" parent="1">
          <mxGeometry x="560" y="240" width="10" height="40" as="geometry" />
        </mxCell>
        <mxCell id="NyXgYyN8ezu5VPn1i4Vc-16" value="" style="endArrow=classic;html=1;rounded=0;" edge="1" parent="1" target="NyXgYyN8ezu5VPn1i4Vc-14">
          <mxGeometry width="50" height="50" relative="1" as="geometry">
            <mxPoint x="405" y="240" as="sourcePoint" />
            <mxPoint x="530" y="240" as="targetPoint" />
          </mxGeometry>
        </mxCell>
        <mxCell id="NyXgYyN8ezu5VPn1i4Vc-17" value="&lt;span style=&quot;color: rgb(0, 0, 0); font-family: Helvetica; font-size: 11px; font-style: normal; font-variant-ligatures: normal; font-variant-caps: normal; font-weight: 400; letter-spacing: normal; orphans: 2; text-align: center; text-indent: 0px; text-transform: none; widows: 2; word-spacing: 0px; -webkit-text-stroke-width: 0px; white-space: nowrap; background-color: rgb(255, 255, 255); text-decoration-thickness: initial; text-decoration-style: initial; text-decoration-color: initial; float: none; display: inline !important;&quot;&gt;gets notified about request&lt;/span&gt;" style="text;whiteSpace=wrap;html=1;" vertex="1" parent="1">
          <mxGeometry x="415" y="217" width="135" height="20" as="geometry" />
        </mxCell>
        <mxCell id="NyXgYyN8ezu5VPn1i4Vc-18" value="Contentservice" style="shape=umlLifeline;perimeter=lifelinePerimeter;whiteSpace=wrap;html=1;container=0;dropTarget=0;collapsible=0;recursiveResize=0;outlineConnect=0;portConstraint=eastwest;newEdgeStyle={&quot;edgeStyle&quot;:&quot;elbowEdgeStyle&quot;,&quot;elbow&quot;:&quot;vertical&quot;,&quot;curved&quot;:0,&quot;rounded&quot;:0};" vertex="1" parent="1">
          <mxGeometry x="670" y="60" width="100" height="660" as="geometry" />
        </mxCell>
        <mxCell id="NyXgYyN8ezu5VPn1i4Vc-19" value="" style="html=1;points=[];perimeter=orthogonalPerimeter;outlineConnect=0;targetShapes=umlLifeline;portConstraint=eastwest;newEdgeStyle={&quot;edgeStyle&quot;:&quot;elbowEdgeStyle&quot;,&quot;elbow&quot;:&quot;vertical&quot;,&quot;curved&quot;:0,&quot;rounded&quot;:0};" vertex="1" parent="NyXgYyN8ezu5VPn1i4Vc-18">
          <mxGeometry x="45" y="260" width="10" height="40" as="geometry" />
        </mxCell>
        <mxCell id="NyXgYyN8ezu5VPn1i4Vc-20" value="" style="endArrow=classic;html=1;rounded=0;" edge="1" parent="1" source="aM9ryv3xv72pqoxQDRHE-6" target="NyXgYyN8ezu5VPn1i4Vc-19">
          <mxGeometry width="50" height="50" relative="1" as="geometry">
            <mxPoint x="460" y="370" as="sourcePoint" />
            <mxPoint x="510" y="320" as="targetPoint" />
          </mxGeometry>
        </mxCell>
        <mxCell id="NyXgYyN8ezu5VPn1i4Vc-21" value="&lt;span style=&quot;color: rgb(0, 0, 0); font-family: Helvetica; font-size: 11px; font-style: normal; font-variant-ligatures: normal; font-variant-caps: normal; font-weight: 400; letter-spacing: normal; orphans: 2; text-align: center; text-indent: 0px; text-transform: none; widows: 2; word-spacing: 0px; -webkit-text-stroke-width: 0px; white-space: nowrap; background-color: rgb(255, 255, 255); text-decoration-thickness: initial; text-decoration-style: initial; text-decoration-color: initial; float: none; display: inline !important;&quot;&gt;creates advertisment&lt;/span&gt;" style="text;whiteSpace=wrap;html=1;" vertex="1" parent="1">
          <mxGeometry x="518.5" y="298" width="110" height="20" as="geometry" />
        </mxCell>
        <mxCell id="NyXgYyN8ezu5VPn1i4Vc-22" value="" style="endArrow=classic;html=1;rounded=0;" edge="1" parent="1">
          <mxGeometry width="50" height="50" relative="1" as="geometry">
            <mxPoint x="715" y="360" as="sourcePoint" />
            <mxPoint x="405" y="360" as="targetPoint" />
          </mxGeometry>
        </mxCell>
        <mxCell id="NyXgYyN8ezu5VPn1i4Vc-26" value="" style="endArrow=none;dashed=1;html=1;rounded=0;" edge="1" parent="1" target="NyXgYyN8ezu5VPn1i4Vc-25">
          <mxGeometry width="50" height="50" relative="1" as="geometry">
            <mxPoint x="570" y="720" as="sourcePoint" />
            <mxPoint x="565" y="280" as="targetPoint" />
          </mxGeometry>
        </mxCell>
        <mxCell id="NyXgYyN8ezu5VPn1i4Vc-25" value="&lt;span style=&quot;color: rgb(0, 0, 0); font-family: Helvetica; font-size: 11px; font-variant-ligatures: normal; font-variant-caps: normal; font-weight: 400; letter-spacing: normal; orphans: 2; text-align: center; text-indent: 0px; text-transform: none; widows: 2; word-spacing: 0px; -webkit-text-stroke-width: 0px; white-space: nowrap; background-color: rgb(255, 255, 255); text-decoration-thickness: initial; text-decoration-style: initial; text-decoration-color: initial; float: none; display: inline !important;&quot;&gt;&lt;i&gt;response&lt;/i&gt;&lt;/span&gt;" style="text;whiteSpace=wrap;html=1;" vertex="1" parent="1">
          <mxGeometry x="543.75" y="339" width="42.5" height="20" as="geometry" />
        </mxCell>
        <mxCell id="NyXgYyN8ezu5VPn1i4Vc-27" value="" style="endArrow=classic;html=1;rounded=0;" edge="1" parent="1" source="aM9ryv3xv72pqoxQDRHE-6">
          <mxGeometry width="50" height="50" relative="1" as="geometry">
            <mxPoint x="310" y="390" as="sourcePoint" />
            <mxPoint x="40" y="390" as="targetPoint" />
            <Array as="points">
              <mxPoint x="375" y="390" />
            </Array>
          </mxGeometry>
        </mxCell>
        <mxCell id="NyXgYyN8ezu5VPn1i4Vc-29" value="" style="endArrow=none;dashed=1;html=1;rounded=0;exitX=0.146;exitY=0.996;exitDx=0;exitDy=0;exitPerimeter=0;" edge="1" parent="1" source="NyXgYyN8ezu5VPn1i4Vc-31">
          <mxGeometry width="50" height="50" relative="1" as="geometry">
            <mxPoint x="40" y="480" as="sourcePoint" />
            <mxPoint x="40" y="130" as="targetPoint" />
          </mxGeometry>
        </mxCell>
        <mxCell id="NyXgYyN8ezu5VPn1i4Vc-30" value="&lt;span style=&quot;color: rgb(0, 0, 0); font-family: Helvetica; font-size: 11px; font-style: normal; font-variant-ligatures: normal; font-variant-caps: normal; font-weight: 400; letter-spacing: normal; orphans: 2; text-align: center; text-indent: 0px; text-transform: none; widows: 2; word-spacing: 0px; -webkit-text-stroke-width: 0px; white-space: nowrap; background-color: rgb(255, 255, 255); text-decoration-thickness: initial; text-decoration-style: initial; text-decoration-color: initial; float: none; display: inline !important;&quot;&gt;notifies requester about publishing&lt;/span&gt;&lt;span style=&quot;color: rgba(0, 0, 0, 0); font-family: monospace; font-size: 0px; text-wrap-mode: nowrap;&quot;&gt;%3CmxGraphModel%3E%3Croot%3E%3CmxCell%20id%3D%220%22%2F%3E%3CmxCell%20id%3D%221%22%20parent%3D%220%22%2F%3E%3CmxCell%20id%3D%222%22%20value%3D%22if%20requests%20gets%20accepted%22%20style%3D%22text%3Bhtml%3D1%3Balign%3Dcenter%3BverticalAlign%3Dmiddle%3BwhiteSpace%3Dwrap%3Brounded%3D0%3B%22%20vertex%3D%221%22%20parent%3D%221%22%3E%3CmxGeometry%20x%3D%22-90%22%20y%3D%22253%22%20width%3D%2280%22%20height%3D%2230%22%20as%3D%22geometry%22%2F%3E%3C%2FmxCell%3E%3C%2Froot%3E%3C%2FmxGraphModel%3E&lt;/span&gt;" style="text;whiteSpace=wrap;html=1;" vertex="1" parent="1">
          <mxGeometry x="160" y="368" width="180" height="20" as="geometry" />
        </mxCell>
        <mxCell id="NyXgYyN8ezu5VPn1i4Vc-34" value="" style="endArrow=none;dashed=1;html=1;dashPattern=1 3;strokeWidth=2;rounded=0;entryX=0;entryY=0.5;entryDx=0;entryDy=0;exitX=1;exitY=0.5;exitDx=0;exitDy=0;" edge="1" parent="1" source="NyXgYyN8ezu5VPn1i4Vc-31" target="NyXgYyN8ezu5VPn1i4Vc-31">
          <mxGeometry width="50" height="50" relative="1" as="geometry">
            <mxPoint x="-80" y="400" as="sourcePoint" />
            <mxPoint x="-30" y="350" as="targetPoint" />
          </mxGeometry>
        </mxCell>
        <mxCell id="NyXgYyN8ezu5VPn1i4Vc-35" value="if requests gets accepted" style="text;html=1;align=center;verticalAlign=middle;whiteSpace=wrap;rounded=0;" vertex="1" parent="1">
          <mxGeometry x="-90" y="253" width="80" height="30" as="geometry" />
        </mxCell>
        <mxCell id="NyXgYyN8ezu5VPn1i4Vc-36" value="if requests gets rejected" style="text;html=1;align=center;verticalAlign=middle;whiteSpace=wrap;rounded=0;" vertex="1" parent="1">
          <mxGeometry x="-90" y="490" width="80" height="30" as="geometry" />
        </mxCell>
        <mxCell id="NyXgYyN8ezu5VPn1i4Vc-38" value="&lt;span style=&quot;color: rgb(0, 0, 0); font-family: Helvetica; font-size: 11px; font-style: normal; font-variant-ligatures: normal; font-variant-caps: normal; font-weight: 400; letter-spacing: normal; orphans: 2; text-align: center; text-indent: 0px; text-transform: none; widows: 2; word-spacing: 0px; -webkit-text-stroke-width: 0px; white-space: nowrap; background-color: rgb(255, 255, 255); text-decoration-thickness: initial; text-decoration-style: initial; text-decoration-color: initial; float: none; display: inline !important;&quot;&gt;notifies requester about rejecting&lt;/span&gt;&lt;span style=&quot;color: rgba(0, 0, 0, 0); font-family: monospace; font-size: 0px; text-wrap-mode: nowrap;&quot;&gt;%3CmxGraphModel%3E%3Croot%3E%3CmxCell%20id%3D%220%22%2F%3E%3CmxCell%20id%3D%221%22%20parent%3D%220%22%2F%3E%3CmxCell%20id%3D%222%22%20value%3D%22if%20requests%20gets%20accepted%22%20style%3D%22text%3Bhtml%3D1%3Balign%3Dcenter%3BverticalAlign%3Dmiddle%3BwhiteSpace%3Dwrap%3Brounded%3D0%3B%22%20vertex%3D%221%22%20parent%3D%221%22%3E%3CmxGeometry%20x%3D%22-90%22%20y%3D%22253%22%20width%3D%2280%22%20height%3D%2230%22%20as%3D%22geometry%22%2F%3E%3C%2FmxCell%3E%3C%2Froot%3E%3C%2FmxGraphModel%3E&lt;/span&gt;" style="text;whiteSpace=wrap;html=1;" vertex="1" parent="1">
          <mxGeometry x="150" y="590" width="180" height="20" as="geometry" />
        </mxCell>
        <mxCell id="NyXgYyN8ezu5VPn1i4Vc-39" value="" style="endArrow=classic;html=1;rounded=0;" edge="1" parent="1">
          <mxGeometry width="50" height="50" relative="1" as="geometry">
            <mxPoint x="395" y="620" as="sourcePoint" />
            <mxPoint x="40" y="620" as="targetPoint" />
            <Array as="points">
              <mxPoint x="375" y="620" />
            </Array>
          </mxGeometry>
        </mxCell>
      </root>
    </mxGraphModel>
  </diagram>
</mxfile>
